HIERARCHY
ROOT Hips
{
	OFFSET 0.00000 0.00000 0.00000
	CHANNELS 6 Xposition Yposition Zposition Zrotation Yrotation Xrotation 
	JOINT LHipJoint
	{
		OFFSET 0 0 0
		CHANNELS 3 Zrotation Yrotation Xrotation
		JOINT LeftHip
		{
			OFFSET 1.56857 -1.73443 1.15205
			CHANNELS 3 Zrotation Yrotation Xrotation
			JOINT LeftKnee
			{
				OFFSET 2.39362 -6.57643 0.00000
				CHANNELS 3 Zrotation Yrotation Xrotation
				JOINT LeftAnkle
				{
					OFFSET 2.50952 -6.89485 0.00000
					CHANNELS 3 Zrotation Yrotation Xrotation
					JOINT LeftToe
					{
						OFFSET 0.17171 -0.47178 1.88682
						CHANNELS 3 Zrotation Yrotation Xrotation
						End Site
						{
							OFFSET 0.00000 -0.00000 0.98146
						}
					}
				}
			}
		}
	}
	JOINT RHipJoint
	{
		OFFSET 0 0 0
		CHANNELS 3 Zrotation Yrotation Xrotation
		JOINT RightHip
		{
			OFFSET -1.28153 -1.73443 1.15205
			CHANNELS 3 Zrotation Yrotation Xrotation
			JOINT RightKnee
			{
				OFFSET -2.26861 -6.23296 0.00000
				CHANNELS 3 Zrotation Yrotation Xrotation
				JOINT RightAnkle
				{
					OFFSET -2.54143 -6.98254 0.00000
					CHANNELS 3 Zrotation Yrotation Xrotation
					JOINT RightToe
					{
						OFFSET -0.23309 -0.64041 1.93119
						CHANNELS 3 Zrotation Yrotation Xrotation
						End Site
						{
							OFFSET -0.00000 -0.00000 1.02013
						}
					}
				}
			}
		}
	}
	JOINT lowerback
	{
		OFFSET 0 0 0
		CHANNELS 3 Zrotation Yrotation Xrotation
		JOINT Chest
		{
			OFFSET -0.07096 2.10460 -0.27878
			CHANNELS 3 Zrotation Yrotation Xrotation
			JOINT Chest2
			{
				OFFSET -0.00826 2.13662 -0.08279
				CHANNELS 3 Zrotation Yrotation Xrotation
				JOINT lowerneck
				{
					OFFSET 0 0 0
					CHANNELS 3 Zrotation Yrotation Xrotation
					JOINT Neck
					{
						OFFSET 0.03239 1.77799 0.24435
						CHANNELS 3 Zrotation Yrotation Xrotation
						JOINT Head
						{
							OFFSET 0.01026 1.74194 -0.49664
							CHANNELS 3 Zrotation Yrotation Xrotation
							End Site
							{
								OFFSET 0.00170 1.83057 -0.19653
							}
						}
					}
				}
				JOINT LeftCollar
				{
					OFFSET 0 0 0
					CHANNELS 3 Zrotation Yrotation Xrotation
					JOINT LeftShoulder
					{
						OFFSET 3.19178 1.35907 -0.31412
CHANNELS 3 Zrotation Xrotation Yrotation
						JOINT LeftElbow
						{
OFFSET 0 -4.852470 -0.000000
CHANNELS 3 Zrotation Xrotation Yrotation
							JOINT LeftWrist
							{
OFFSET 0 -3.555840 0.000000
CHANNELS 3 Zrotation Xrotation Yrotation
								JOINT lhand
								{
									OFFSET 0 0 0
CHANNELS 3 Zrotation Xrotation Yrotation
									JOINT LFingers
									{
OFFSET 0 -0.693200 0.000000
CHANNELS 3 Zrotation Xrotation Yrotation
										End Site
										{
OFFSET 0 -0.558880 0.000000
										}
									}
								}
								JOINT LThumb
								{
OFFSET 0 0.000000 0.000000
CHANNELS 3 Zrotation Xrotation Yrotation
									End Site
									{
OFFSET 0 -0.567410 0.567410
									}
								}
							}
						}
					}
				}
				JOINT RightCollar
				{
					OFFSET 0 0 0
					CHANNELS 3 Zrotation Yrotation Xrotation
					JOINT RightShoulder
					{
						OFFSET -3.28999 1.24191 -0.26899
CHANNELS 3 Zrotation Xrotation Yrotation
						JOINT RightElbow
						{
OFFSET 0 -4.644620 0.000000
CHANNELS 3 Zrotation Xrotation Yrotation
							JOINT RightWrist
							{
OFFSET 0 -3.407030 0.000000
CHANNELS 3 Zrotation Xrotation Yrotation
								JOINT rhand
								{
									OFFSET 0 0 0
CHANNELS 3 Zrotation Xrotation Yrotation
									JOINT RFingers
									{
OFFSET 0 -0.619580 0.000000
CHANNELS 3 Zrotation Xrotation Yrotation
										End Site
										{
OFFSET 0 -0.499520 0.000000
										}
									}
								}
								JOINT RThumb
								{
OFFSET 0 0.000000 0.000000
CHANNELS 3 Zrotation Xrotation Yrotation
									End Site
									{
OFFSET 0 -0.507150 0.507150
									}
								}
							}
						}
					}
				}
			}
		}
	}
}
MOTION
Frames: 10
Frame Time: 0.008333333333333333
-28.556700 17.077300 1.618100 39.000000 84.639800 36.866200 0.000000 0.000000 0.000000 -18.131700 4.512100 13.855100 0.030100 -1.119700 -3.078200 0.017000 13.941400 -20.002800 0.056500 -1.534400 -4.220600 0.000000 0.000000 0.000000 8.138400 -6.189200 7.854500 -0.023100 -0.980300 2.694700 -0.408000 7.369800 -11.732900 -0.078000 -1.801900 4.958600 -4.174800 2.478300 5.865000 -1.730100 2.980900 -0.151600 0.283200 1.552200 -3.565700 4.171800 1.117400 -21.620700 1.822800 -0.116800 28.205100 0.018500 0.820400 13.082900 -0.000000 0.000000 0.000000 90.000000 0.000000 0.000000 -0.000000 0.000000 0.000000 -0.000000 0.000000 -0.000000 0.000000 0.000000 0.000000 -0.000000 -0.000000 -0.000000 -0.000000 0.000000 -0.000000 -0.000000 0.000000 0.000000 -1.414300 5.872800 33.183500 -16.091500 -25.644500 -3.685500 -10.935200 13.851500 30.875200 0.000000 0.000000 0.000000 7.125000 0.000000 -0.000000 23.614700 59.735200 -8.790800
-28.544925 17.076616 1.614951 44.115495 84.365078 41.892658 0.000000 0.000000 0.000000 -18.524091 5.488718 13.491752 0.025705 -1.033719 -2.841662 0.023191 13.249999 -19.114263 0.112483 -2.161893 -5.953262 0.000000 0.000000 0.000000 7.186789 -6.955650 7.785263 -0.024009 -1.000147 2.749230 -0.367106 8.038347 -11.384235 -0.083477 -1.862929 5.126963 -4.861703 2.387424 5.832050 -1.745727 2.817279 -0.135420 0.665857 1.483777 -3.557513 4.042950 1.219932 -21.683195 1.793833 0.084028 28.330982 0.065646 0.893349 13.149011 0.000000 0.000000 0.000000 90.000000 0.000000 0.000000 0.000000 0.000000 0.000000 0.000000 0.000000 0.000000 0.000000 0.000000 0.000000 0.000000 0.000000 0.000000 0.000000 0.000000 0.000000 0.000000 0.000000 0.000000 -1.838072 5.984930 34.398562 -16.379849 -26.032734 -3.811221 -11.957558 13.446787 30.452915 0.000000 0.000000 0.000000 7.125000 0.000000 0.000000 22.219758 59.584520 -8.160990
-28.541556 17.077060 1.614340 45.232199 84.246340 42.937904 0.000000 0.000000 0.000000 -18.696237 5.609572 13.539948 0.024951 -1.019366 -2.802021 0.059018 13.071954 -19.290225 0.094201 -1.969804 -5.422508 0.000000 0.000000 0.000000 6.939779 -7.077838 7.856795 -0.022821 -0.975868 2.682410 -0.355282 8.194024 -11.278416 -0.090440 -1.939296 5.337938 -4.813262 2.451202 6.033455 -1.935671 2.884821 -0.228360 0.424243 1.520245 -3.758395 4.214286 1.175706 -21.703216 1.778033 -0.036405 28.419214 0.010977 0.861829 13.189673 0.000000 0.000000 0.000000 90.000000 0.000000 0.000000 0.000000 0.000000 0.000000 0.000000 0.000000 0.000000 0.000000 0.000000 0.000000 0.000000 0.000000 0.000000 0.000000 0.000000 0.000000 0.000000 0.000000 0.000000 -1.564955 5.947354 34.197723 -16.257221 -25.867961 -3.757641 -12.082828 13.520514 30.083481 0.000000 0.000000 0.000000 7.125000 0.000000 0.000000 21.802955 59.273178 -7.835784
-28.539661 17.078349 1.614419 45.640127 84.238007 43.323761 0.000000 0.000000 0.000000 -18.776997 5.491504 13.650330 0.027117 -1.063306 -2.923167 0.008761 13.315644 -19.033774 0.116997 -2.205255 -6.073311 0.000000 0.000000 0.000000 6.901646 -7.080435 7.898275 -0.023372 -0.987388 2.714117 -0.357929 8.156210 -11.301587 -0.112220 -2.159684 5.947288 -4.654396 2.482795 6.345599 -2.052478 2.905199 -0.443835 0.191611 1.534167 -4.145152 4.201994 1.096762 -21.496166 1.766373 -0.118106 28.594536 -0.004387 0.831998 13.218073 0.000000 0.000000 0.000000 90.000000 0.000000 0.000000 0.000000 0.000000 0.000000 0.000000 0.000000 0.000000 0.000000 0.000000 0.000000 0.000000 0.000000 0.000000 0.000000 0.000000 0.000000 0.000000 0.000000 0.000000 -1.314424 6.242130 34.020876 -16.409292 -26.072448 -3.824120 -11.881299 13.316863 30.645866 0.000000 0.000000 0.000000 7.125000 0.000000 0.000000 22.449230 59.744310 -8.334914
-28.543367 17.079417 1.616463 45.354001 84.301041 43.055845 0.000000 0.000000 0.000000 -18.894540 4.960904 13.919228 0.030673 -1.129647 -3.105521 0.025265 13.569369 -19.580223 0.059324 -1.567671 -4.312332 0.000000 0.000000 0.000000 7.002728 -6.995848 7.887225 -0.023081 -0.980791 2.695945 -0.359122 8.057246 -11.288853 -0.111495 -2.152657 5.927767 -4.781125 2.463056 6.320510 -1.919983 2.874965 -0.418136 0.404180 1.521793 -4.116364 4.232310 1.165177 -21.622512 1.610213 0.013628 28.809061 -0.044630 0.877610 13.334705 0.000000 0.000000 0.000000 90.000000 0.000000 0.000000 0.000000 0.000000 0.000000 0.000000 0.000000 0.000000 0.000000 0.000000 0.000000 0.000000 0.000000 0.000000 0.000000 0.000000 0.000000 0.000000 0.000000 0.000000 -1.403116 5.987251 33.851831 -16.190321 -25.777816 -3.728423 -11.772920 13.787325 30.520111 0.000000 0.000000 0.000000 7.125000 0.000000 0.000000 22.469474 59.602277 -8.273285
-28.545383 17.078209 1.616026 46.101331 84.389640 43.815765 0.000000 0.000000 0.000000 -18.904970 4.872124 13.905957 0.030221 -1.122558 -3.086067 0.043421 13.518876 -19.718541 0.057422 -1.543466 -4.245588 0.000000 0.000000 0.000000 7.020496 -7.045449 7.927925 -0.021679 -0.951310 2.614734 -0.368707 7.985835 -11.389404 -0.105318 -2.092225 5.760660 -4.921085 2.378820 6.444703 -1.761308 2.743433 -0.501341 0.651710 1.463628 -4.282003 4.293328 1.265599 -21.609419 1.349174 0.222860 28.889379 -0.120238 0.940162 13.367435 0.000000 0.000000 0.000000 90.000000 0.000000 0.000000 0.000000 0.000000 0.000000 0.000000 0.000000 0.000000 0.000000 0.000000 0.000000 0.000000 0.000000 0.000000 0.000000 0.000000 0.000000 0.000000 0.000000 0.000000 -1.757601 6.143724 34.344528 -16.250549 -25.859069 -3.754662 -11.843692 13.681275 30.481799 0.000000 0.000000 0.000000 7.125000 0.000000 0.000000 22.361360 59.584377 -8.217552
-28.545191 17.078459 1.615144 46.740326 84.316716 44.486035 0.000000 0.000000 0.000000 -18.937311 5.038856 13.737548 0.028606 -1.091555 -3.000682 0.033128 13.421358 -19.466961 0.087296 -1.905813 -5.245434 0.000000 0.000000 0.000000 6.880508 -7.089171 7.850138 -0.022581 -0.970948 2.668795 -0.364250 8.038534 -11.347823 -0.094694 -1.984722 5.463461 -4.782392 2.423208 6.376975 -1.906338 2.815364 -0.482037 0.420570 1.494290 -4.212834 4.286444 1.253181 -21.523606 1.446713 0.180502 28.735096 -0.090189 0.930088 13.284792 0.000000 0.000000 0.000000 90.000000 0.000000 0.000000 0.000000 0.000000 0.000000 0.000000 0.000000 0.000000 0.000000 0.000000 0.000000 0.000000 0.000000 0.000000 0.000000 0.000000 0.000000 0.000000 0.000000 0.000000 -1.605076 6.156029 34.294360 -16.365202 -26.013296 -3.804799 -11.716878 13.255816 30.982470 0.000000 0.000000 0.000000 7.125000 0.000000 0.000000 22.892104 60.013864 -8.658259
-28.546082 17.080408 1.613673 45.021981 84.510035 42.767970 0.000000 0.000000 0.000000 -18.746226 4.765737 13.940456 0.031752 -1.150107 -3.161890 0.002210 13.749891 -19.565374 0.096640 -2.000400 -5.506840 0.000000 0.000000 0.000000 7.195133 -7.104449 7.814115 -0.023733 -0.994787 2.734554 -0.366893 8.040094 -11.381454 -0.067223 -1.672286 4.600801 -4.045863 2.546224 7.074974 -2.141495 2.968359 -0.932182 -0.297761 1.563108 -5.032705 4.367954 1.055002 -21.385924 1.652673 -0.174892 29.140804 -0.080267 0.834547 13.423144 0.000000 0.000000 0.000000 90.000000 0.000000 0.000000 0.000000 0.000000 0.000000 0.000000 0.000000 0.000000 0.000000 0.000000 0.000000 0.000000 0.000000 0.000000 0.000000 0.000000 0.000000 0.000000 0.000000 0.000000 -1.070148 6.776352 33.545624 -16.176174 -25.758781 -3.722326 -11.512724 13.921490 30.991819 0.000000 0.000000 0.000000 7.125000 0.000000 0.000000 23.112880 59.974548 -8.725961
-28.548541 17.081176 1.613108 44.095683 84.729418 41.819397 0.000000 0.000000 0.000000 -18.477606 4.704752 13.922915 0.030534 -1.127640 -3.099974 0.016890 13.677431 -19.633663 0.078172 -1.799972 -4.953341 0.000000 0.000000 0.000000 7.510658 -6.959751 7.950219 -0.021854 -0.954020 2.622328 -0.378427 7.732072 -11.445942 -0.108356 -2.122643 5.844809 -3.878285 2.488488 7.233106 -1.999251 2.897508 -1.008014 -0.244981 1.525966 -5.198366 4.349507 1.054067 -21.407436 1.489405 -0.109504 29.455703 -0.126459 0.849753 13.559987 0.000000 0.000000 0.000000 4.620454 4.024674 -38.607807 12.105119 -19.962060 2.138066 15.733140 9.395618 23.593666 0.000000 0.000000 0.000000 -7.125000 0.000000 0.000000 -8.324512 5.789050 -7.525607 0.000000 0.000000 0.000000 -1.297902 6.958691 33.711996 -16.125922 -25.690871 -3.700490 -11.788204 14.096097 30.636250 0.000000 0.000000 0.000000 7.125000 0.000000 0.000000 22.544418 59.712583 -8.360639
-28.546168 17.082488 1.612496 47.132421 84.528568 44.771342 0.000000 0.000000 0.000000 -18.863321 4.830539 13.915840 0.029188 -1.103425 -3.033307 0.021764 13.588470 -19.566101 0.063482 -1.624187 -4.468246 0.000000 0.000000 0.000000 7.175648 -6.733641 8.180327 -0.020728 -0.929015 2.553563 -0.402171 7.518091 -11.693338 -0.113565 -2.171645 5.980232 -5.206013 2.129691 6.145915 -1.322693 2.434079 -0.202444 1.317062 1.306519 -3.818335 4.245692 1.457677 -21.809362 0.621383 0.743979 29.172656 -0.304222 1.061442 13.534644 0.000000 0.000000 0.000000 3.239942 3.009960 -36.322195 11.472032 -19.008148 1.926844 16.988600 10.925923 26.044472 0.000000 0.000000 0.000000 -7.125000 0.000000 0.000000 -7.733005 3.125608 -7.368320 0.000000 0.000000 0.000000 -2.831313 5.768376 35.490200 -16.294296 -25.918003 -3.773708 -11.207088 12.893331 31.124099 0.000000 0.000000 0.000000 7.125000 0.000000 0.000000 23.540954 60.023445 -8.926873
